<svg width="38" height="91" viewBox="0 0 38 91" fill="none" xmlns="http://www.w3.org/2000/svg">
<path d="M35.7179 4.56426C34.489 4.56426 33.4357 3.51097 33.4357 2.28213C33.4357 1.05329 34.489 0 35.7179 0C36.9467 0 38 1.05329 38 2.28213C38 3.51097 37.0345 4.56426 35.7179 4.56426Z" fill="#DCA74A"/>
<path d="M35.7179 21.7681C34.489 21.7681 33.4357 20.7148 33.4357 19.4859C33.4357 18.2571 34.489 17.2038 35.7179 17.2038C36.9467 17.2038 38 18.2571 38 19.4859C38 20.7148 37.0345 21.7681 35.7179 21.7681Z" fill="#DCA74A"/>
<path d="M35.7179 38.884C34.489 38.884 33.4357 37.8307 33.4357 36.6019C33.4357 35.3731 34.489 34.3198 35.7179 34.3198C36.9467 34.3198 38 35.3731 38 36.6019C38 37.9185 37.0345 38.884 35.7179 38.884Z" fill="#DCA74A"/>
<path d="M35.7179 56.0878C34.489 56.0878 33.4357 55.0345 33.4357 53.8056C33.4357 52.5768 34.489 51.5235 35.7179 51.5235C36.9467 51.5235 38 52.5768 38 53.8056C38 55.1222 37.0345 56.0878 35.7179 56.0878Z" fill="#DCA74A"/>
<path d="M35.7179 73.2916C34.489 73.2916 33.4357 72.2383 33.4357 71.0094C33.4357 69.7806 34.489 68.7273 35.7179 68.7273C36.9467 68.7273 38 69.7806 38 71.0094C38 72.2383 37.0345 73.2916 35.7179 73.2916Z" fill="#DCA74A"/>
<path d="M35.7179 90.4953C34.489 90.4953 33.4357 89.442 33.4357 88.2132C33.4357 86.9843 34.489 85.931 35.7179 85.931C36.9467 85.931 38 86.9843 38 88.2132C38 89.442 37.0345 90.4953 35.7179 90.4953Z" fill="#DCA74A"/>
<path d="M10 4.56426C8.77119 4.56426 7.7179 3.51097 7.7179 2.28213C7.7179 1.05329 8.77119 0 10 0C11.2289 0 12.2822 1.05329 12.2822 2.28213C12.2822 3.51097 11.2289 4.56426 10 4.56426Z" fill="#DCA74A"/>
<path d="M10 21.7681C8.77119 21.7681 7.7179 20.7148 7.7179 19.4859C7.7179 18.2571 8.77119 17.2038 10 17.2038C11.2289 17.2038 12.2822 18.2571 12.2822 19.4859C12.2822 20.7148 11.2289 21.7681 10 21.7681Z" fill="#DCA74A"/>
<path d="M10 38.884C8.77119 38.884 7.7179 37.8307 7.7179 36.6019C7.7179 35.3731 8.77119 34.3198 10 34.3198C11.2289 34.3198 12.2822 35.3731 12.2822 36.6019C12.2822 37.9185 11.2289 38.884 10 38.884Z" fill="#DCA74A"/>
<path d="M10 56.0878C8.77119 56.0878 7.7179 55.0345 7.7179 53.8056C7.7179 52.5768 8.77119 51.5235 10 51.5235C11.2289 51.5235 12.2822 52.5768 12.2822 53.8056C12.2822 55.1222 11.2289 56.0878 10 56.0878Z" fill="#DCA74A"/>
<path d="M10 73.2916C8.77119 73.2916 7.7179 72.2383 7.7179 71.0094C7.7179 69.7806 8.77119 68.7273 10 68.7273C11.2289 68.7273 12.2822 69.7806 12.2822 71.0094C12.2822 72.2383 11.2289 73.2916 10 73.2916Z" fill="#DCA74A"/>
<path d="M10 90.4953C8.77119 90.4953 7.7179 89.442 7.7179 88.2132C7.7179 86.9843 8.77119 85.931 10 85.931C11.2289 85.931 12.2822 86.9843 12.2822 88.2132C12.2822 89.442 11.2289 90.4953 10 90.4953Z" fill="#DCA74A"/>
</svg>
