<svg width="17" height="15" viewBox="0 0 17 15" fill="none" xmlns="http://www.w3.org/2000/svg">
<path d="M14.0991 2.12977L14.0983 2.129C13.7351 1.77677 13.3062 1.49633 12.8348 1.3034L12.8335 1.30287C12.3442 1.10184 11.8191 0.998803 11.2887 1.00001L11.2864 1.00002C10.5393 1.00001 9.81286 1.20232 9.18328 1.58222L9.18325 1.58223C9.03263 1.67311 8.89035 1.77243 8.75605 1.88018L8.13026 2.38225L7.50448 1.88018C7.37017 1.77243 7.2279 1.67311 7.07727 1.58223L7.07724 1.58222C6.44767 1.20232 5.72127 1.00001 4.97414 1.00001C4.43444 1.00001 3.91629 1.10184 3.42701 1.30288L3.42593 1.30332C2.95252 1.49719 2.52752 1.77508 2.16189 2.1293L2.16052 2.13062L2.16052 2.13062C1.7992 2.47932 1.51116 2.89418 1.31219 3.35138L14.0991 2.12977ZM14.0991 2.12977C14.4604 2.4793 14.7488 2.89455 14.9486 3.35201M14.0991 2.12977L8.9 14.0305M8.9 14.0305C8.9734 13.984 10.7011 12.8838 12.4495 11.2884C13.5034 10.326 14.3522 9.37663 14.9695 8.46633C15.359 7.89112 15.6658 7.32148 15.8766 6.77233C16.1307 6.1152 16.2586 5.46924 16.2586 4.84935C16.2605 4.19222 16.1269 3.55371 15.8653 2.95243L14.9483 3.35138C14.9484 3.35159 14.9485 3.3518 14.9486 3.35201M8.9 14.0305L8.45397 14.3135L8.9 14.0305ZM14.9486 3.35201C15.1555 3.82781 15.2601 4.32941 15.2586 4.84648V4.84935C15.2586 5.33077 15.1593 5.85458 14.9439 6.4117L14.943 6.41398C14.7648 6.87836 14.4972 7.38036 14.1415 7.90557M14.9486 3.35201L14.1415 7.90557M14.1415 7.90557C13.5793 8.73455 12.7876 9.62542 11.7751 10.55C10.0896 12.0879 8.4182 13.1519 8.36452 13.186L8.36432 13.1861L8.12932 13.3352L7.89432 13.1861L7.8865 13.1811L7.87858 13.1763L7.87772 13.1758C7.86718 13.1691 7.76151 13.1022 7.57726 12.9781C7.38651 12.8496 7.11897 12.6649 6.79997 12.4326C6.16045 11.9669 5.3221 11.316 4.48361 10.5501L4.4835 10.55C3.47101 9.62542 2.67937 8.73455 2.11715 7.90557L14.1415 7.90557ZM2.11705 7.90542C1.76271 7.38221 1.49592 6.87936 1.31476 6.4117L2.11705 7.90542ZM1.31456 6.4112C1.0993 5.85427 1 5.33063 1 4.84935C1 4.33013 1.10511 3.8274 1.31216 3.35145L1.31456 6.4112Z" stroke="#DCA74A" stroke-width="2"/>
</svg>
