<svg width="165" height="28" viewBox="0 0 165 28" fill="none" xmlns="http://www.w3.org/2000/svg">
<g clip-path="url(#clip0)">
<path d="M19.5726 18.7996L17.391 16.6222C15.9469 15.1808 15.9469 12.85 17.391 11.4086L19.5726 9.23114C21.0167 7.78973 23.3519 7.78973 24.796 9.23114L26.9776 11.4086C28.4217 12.85 28.4217 15.1808 26.9776 16.6222L24.796 18.7996C23.3519 20.2103 21.0167 20.2103 19.5726 18.7996Z" fill="#DCA74A"/>
<path d="M22.1843 16.4382C23.5249 16.4382 24.6117 15.3534 24.6117 14.0154C24.6117 12.6773 23.5249 11.5926 22.1843 11.5926C20.8437 11.5926 19.757 12.6773 19.757 14.0154C19.757 15.3534 20.8437 16.4382 22.1843 16.4382Z" fill="#2D2F32"/>
<path d="M18.8169 9.89238L18.0565 10.6514L20.2509 12.8416L21.0113 12.0826L18.8169 9.89238Z" fill="#2D2F32"/>
<path d="M18.8659 8.46444L16.6844 10.6419C15.2402 12.0833 12.905 12.0833 11.4609 10.6419L9.27933 8.46444C7.83519 7.02304 7.83519 4.69226 9.27933 3.25086L11.4609 1.07342C12.905 -0.36798 15.2402 -0.36798 16.6844 1.07342L18.8659 3.25086C20.3101 4.69226 20.3101 7.02304 18.8659 8.46444Z" fill="#DCA74A"/>
<path d="M14.0726 8.28044C15.4132 8.28044 16.5 7.19572 16.5 5.85766C16.5 4.51959 15.4132 3.43488 14.0726 3.43488C12.732 3.43488 11.6452 4.51959 11.6452 5.85766C11.6452 7.19572 12.732 8.28044 14.0726 8.28044Z" fill="#2D2F32"/>
<path d="M9.94428 9.21782L10.7047 9.97681L12.8991 7.78658L12.1387 7.02759L9.94428 9.21782Z" fill="#2D2F32"/>
<path d="M9.18713 19.5356L11.3687 17.3582C12.8128 15.9168 15.148 15.9168 16.5922 17.3582L18.7737 19.5356C20.2179 20.9771 20.2179 23.3078 18.7737 24.7492L16.5922 26.9267C15.148 28.3681 12.8128 28.3681 11.3687 26.9267L9.18713 24.7492C7.77372 23.3078 7.77372 20.9771 9.18713 19.5356Z" fill="#DCA74A"/>
<path d="M13.9804 24.5652C15.321 24.5652 16.4078 23.4805 16.4078 22.1424C16.4078 20.8044 15.321 19.7197 13.9804 19.7197C12.6398 19.7197 11.553 20.8044 11.553 22.1424C11.553 23.4805 12.6398 24.5652 13.9804 24.5652Z" fill="#2D2F32"/>
<path d="M18.1008 18.7969L17.3404 18.0379L15.146 20.2281L15.9064 20.9871L18.1008 18.7969Z" fill="#2D2F32"/>
<path d="M8.48044 9.23114L10.662 11.4086C12.1061 12.85 12.1061 15.1808 10.662 16.6222L8.48044 18.7996C7.0363 20.241 4.70111 20.241 3.25697 18.7996L1.07541 16.6222C-0.368724 15.1808 -0.368724 12.85 1.07541 11.4086L3.25697 9.23114C4.70111 7.78973 7.0363 7.78973 8.48044 9.23114Z" fill="#DCA74A"/>
<path d="M5.86872 16.4075C7.20932 16.4075 8.29609 15.3227 8.29609 13.9847C8.29609 12.6466 7.20932 11.5619 5.86872 11.5619C4.52812 11.5619 3.44135 12.6466 3.44135 13.9847C3.44135 15.3227 4.52812 16.4075 5.86872 16.4075Z" fill="#2D2F32"/>
<path d="M9.21967 18.1122L9.9801 17.3532L7.78572 15.163L7.02529 15.922L9.21967 18.1122Z" fill="#2D2F32"/>
<path d="M35.1201 4.23224H38.2849L46.243 17.7569H46.3352V4.23224H48.9469V21.161H45.6899L37.7933 7.57507H37.7011V21.161H35.1201V4.23224Z" fill="#BEBFC0"/>
<path d="M63.2346 15.5795H54.3855C54.4777 16.7755 54.8464 17.7262 55.4302 18.4009C56.0447 19.0756 56.8436 19.3823 57.8883 19.3823C58.7793 19.3823 59.486 19.1676 60.0084 18.7076C60.5307 18.2476 60.8073 17.6649 60.9302 16.8982H63.0503C62.8659 18.3396 62.2821 19.4743 61.3911 20.241C60.4693 21.0077 59.3631 21.4064 58.0726 21.4064C56.7821 21.4064 55.7067 21.1304 54.7849 20.5477C53.8631 19.965 53.1872 19.1983 52.7263 18.2169C52.2654 17.2356 52.0503 16.1315 52.0503 14.9354C52.0503 13.7394 52.2654 12.6353 52.6955 11.6233C53.1257 10.6112 53.771 9.84453 54.6313 9.23117C55.4916 8.64848 56.5671 8.3418 57.8268 8.3418C59.0866 8.3418 60.1313 8.64848 60.9609 9.23117C61.7905 9.81387 62.3743 10.6112 62.743 11.5619C63.1117 12.5127 63.2961 13.5554 63.2961 14.6594C63.2654 15.0274 63.2654 15.3341 63.2346 15.5795ZM55.3687 11.2859C54.7849 11.8686 54.4777 12.6967 54.3855 13.7394H60.9609C60.8995 12.7273 60.6229 11.8993 60.1006 11.2859C59.5782 10.6726 58.7793 10.3659 57.7654 10.3659C56.7207 10.3966 55.9525 10.6726 55.3687 11.2859Z" fill="#BEBFC0"/>
<path d="M82.3156 8.5871L79.3352 21.161H75.9245L73.3743 11.8073L70.8547 21.1917H67.4441L64.4944 8.61777H67.1676L69.2262 19.2903L72.2374 8.61777H74.5111L77.553 19.3209L79.6424 8.61777H82.3156V8.5871Z" fill="#BEBFC0"/>
<path d="M84.6816 20.4557C83.5447 19.6583 82.9916 18.4929 82.9916 16.9289H85.2653C85.2653 17.8489 85.5419 18.5543 86.095 18.953C86.6173 19.3517 87.3855 19.5357 88.3994 19.5357C89.0754 19.505 89.6285 19.3517 90.0586 19.045C90.4888 18.7383 90.7039 18.2783 90.7039 17.6649C90.7039 17.2356 90.581 16.8982 90.3045 16.6529C90.0279 16.4075 89.7207 16.2235 89.3212 16.1008C88.9218 15.9782 88.338 15.8248 87.5084 15.6101C86.5866 15.3955 85.8491 15.1808 85.2961 14.9661C84.743 14.7514 84.2514 14.4141 83.8519 13.9541C83.4525 13.494 83.2681 12.8807 83.2681 12.114C83.2681 10.9179 83.6983 9.96721 84.5586 9.32318C85.419 8.67915 86.5251 8.3418 87.9385 8.3418C89.2905 8.3418 90.3659 8.61781 91.1955 9.16984C91.7486 9.53785 92.1788 9.99788 92.4553 10.5499C92.7318 11.1019 92.8855 11.746 92.8855 12.4513H90.7346C90.7346 11.6233 90.4581 11.0406 89.9357 10.6726C89.4748 10.3659 88.8603 10.2126 88.1536 10.2126C87.3855 10.2126 86.8017 10.3659 86.31 10.6419C85.8491 10.9179 85.6033 11.3473 85.6033 11.8686C85.6033 12.2366 85.757 12.5127 86.0335 12.7273C86.31 12.942 86.648 13.126 87.0167 13.218C87.3855 13.3407 88.0614 13.494 89.014 13.7394C89.8743 13.9541 90.6117 14.1687 91.1648 14.4141C91.7486 14.6594 92.2095 15.0274 92.5782 15.4875C92.9469 15.9475 93.1313 16.5915 93.1313 17.3889C93.1313 18.6463 92.7011 19.6277 91.8715 20.333C91.0419 21.0384 89.9972 21.3757 88.7374 21.3757C86.986 21.4371 85.6341 21.0997 84.6816 20.4557Z" fill="#BEBFC0"/>
<path d="M106.159 15.5795H97.3101C97.4022 16.7755 97.7709 17.7262 98.3547 18.4009C98.9693 19.0756 99.7681 19.3823 100.813 19.3823C101.704 19.3823 102.411 19.1676 102.933 18.7076C103.455 18.2476 103.732 17.6649 103.855 16.8982H105.975C105.79 18.3396 105.207 19.4743 104.316 20.241C103.394 21.0077 102.288 21.4064 100.997 21.4064C99.7067 21.4064 98.6313 21.1304 97.7095 20.5477C96.7877 19.965 96.1117 19.1983 95.6508 18.2169C95.1899 17.2356 94.9749 16.1315 94.9749 14.9354C94.9749 13.7394 95.1899 12.6353 95.6201 11.6233C96.0503 10.6112 96.6955 9.84453 97.5559 9.23117C98.4162 8.64848 99.4916 8.3418 100.751 8.3418C102.011 8.3418 103.056 8.64848 103.885 9.23117C104.715 9.81387 105.299 10.6112 105.668 11.5619C106.036 12.5127 106.221 13.5554 106.221 14.6594C106.19 15.0274 106.19 15.3341 106.159 15.5795ZM98.2933 11.2859C97.7095 11.8686 97.4022 12.6967 97.3101 13.7394H103.855C103.793 12.7273 103.517 11.8993 102.994 11.2859C102.472 10.6726 101.673 10.3659 100.659 10.3659C99.6452 10.3966 98.8464 10.6726 98.2933 11.2859Z" fill="#DCA74A"/>
<path d="M111.721 14.8127L106.866 8.5871H109.939L113.441 13.1873L116.913 8.5871H119.986L115.131 14.8127L119.955 21.161H116.883L113.411 16.4688L109.939 21.161H106.866L111.721 14.8127Z" fill="#DCA74A"/>
<path d="M121.891 8.58711H124.349V10.3659C124.81 9.69116 125.425 9.20047 126.162 8.83245C126.899 8.46444 127.698 8.3111 128.559 8.3111C129.665 8.3111 130.648 8.58711 131.447 9.13914C132.277 9.69116 132.891 10.4579 133.321 11.4699C133.751 12.4513 133.966 13.586 133.966 14.8434C133.966 16.1008 133.751 17.2355 133.321 18.2169C132.891 19.1983 132.246 19.9957 131.416 20.5477C130.587 21.0997 129.603 21.4064 128.497 21.4064C127.606 21.4064 126.807 21.253 126.07 20.9157C125.332 20.5783 124.749 20.0877 124.318 19.3823V25.4852H121.86V8.58711H121.891ZM130.525 18.1556C131.17 17.3582 131.508 16.2541 131.508 14.8434C131.508 13.4633 131.17 12.3593 130.525 11.5926C129.88 10.8259 128.958 10.4272 127.821 10.4272C126.715 10.4272 125.824 10.8259 125.179 11.6233C124.534 12.4206 124.196 13.494 124.196 14.8434C124.196 16.2541 124.534 17.3582 125.179 18.1556C125.824 18.9529 126.715 19.3516 127.821 19.3516C128.989 19.3516 129.88 18.9529 130.525 18.1556Z" fill="#DCA74A"/>
<path d="M147.425 15.5795H138.575C138.668 16.7755 139.036 17.7262 139.62 18.4009C140.235 19.0756 141.034 19.3823 142.078 19.3823C142.969 19.3823 143.676 19.1676 144.198 18.7076C144.721 18.2476 144.997 17.6649 145.12 16.8982H147.24C147.056 18.3396 146.472 19.4743 145.581 20.241C144.659 21.0077 143.553 21.4064 142.263 21.4064C140.972 21.4064 139.897 21.1304 138.975 20.5477C138.053 19.965 137.377 19.1983 136.916 18.2169C136.455 17.2356 136.24 16.1315 136.24 14.9354C136.24 13.7394 136.455 12.6353 136.885 11.6233C137.316 10.6112 137.961 9.84453 138.821 9.23117C139.682 8.64848 140.757 8.3418 142.017 8.3418C143.277 8.3418 144.321 8.64848 145.151 9.23117C145.98 9.81387 146.564 10.6112 146.933 11.5619C147.302 12.5127 147.486 13.5554 147.486 14.6594C147.455 15.0274 147.455 15.3341 147.425 15.5795ZM139.559 11.2859C138.975 11.8686 138.668 12.6967 138.575 13.7394H145.151C145.089 12.7273 144.813 11.8993 144.291 11.2859C143.768 10.6726 142.969 10.3659 141.955 10.3659C140.911 10.3966 140.112 10.6726 139.559 11.2859Z" fill="#DCA74A"/>
<path d="M150.282 8.58709H152.71V10.2738C153.017 9.69114 153.416 9.23112 153.939 8.89377C154.461 8.55642 155.045 8.40308 155.69 8.40308C156.059 8.40308 156.458 8.46441 156.95 8.58709V10.8565H156.612C156.182 10.7339 155.813 10.6725 155.475 10.6725C154.645 10.6725 153.969 10.9792 153.508 11.6232C153.017 12.2673 152.771 13.034 152.771 13.9847V21.161H150.282V8.58709Z" fill="#DCA74A"/>
<path d="M159.623 17.8796V10.4579H157.779V8.58715H159.623V5.70435H162.081V8.58715H165V10.4579H162.081V17.2969C162.081 17.9716 162.204 18.4623 162.45 18.7383C162.696 19.0143 163.126 19.1677 163.709 19.1677H165V21.1611H162.757C160.668 21.1611 159.623 20.057 159.623 17.8796Z" fill="#DCA74A"/>
</g>
<defs>
<clipPath id="clip0">
<rect width="165" height="28" fill="white"/>
</clipPath>
</defs>
</svg>
